<mxfile host="65bd71144e">
    <diagram id="lE065ObyA_mzmsiGlNa_" name="Page-1">
        <mxGraphModel dx="1046" dy="508" grid="1" gridSize="10" guides="1" tooltips="1" connect="1" arrows="1" fold="1" page="1" pageScale="1" pageWidth="827" pageHeight="1169" math="0" shadow="0">
            <root>
                <mxCell id="0"/>
                <mxCell id="1" parent="0"/>
                <mxCell id="TRK05HxOvGJllQYXawu--2" value="" style="rounded=0;whiteSpace=wrap;html=1;" parent="1" vertex="1">
                    <mxGeometry x="116" y="70" width="338" height="600" as="geometry"/>
                </mxCell>
                <mxCell id="TRK05HxOvGJllQYXawu--3" value="" style="endArrow=none;html=1;rounded=0;" parent="1" edge="1">
                    <mxGeometry width="50" height="50" relative="1" as="geometry">
                        <mxPoint x="452" y="120" as="sourcePoint"/>
                        <mxPoint x="118" y="120" as="targetPoint"/>
                    </mxGeometry>
                </mxCell>
                <mxCell id="TRK05HxOvGJllQYXawu--4" value="Code&amp;nbsp; &amp;nbsp;unt" style="text;html=1;align=center;verticalAlign=middle;resizable=0;points=[];autosize=1;strokeColor=none;fillColor=none;fontSize=26;fontStyle=1" parent="1" vertex="1">
                    <mxGeometry x="205" y="78" width="140" height="40" as="geometry"/>
                </mxCell>
                <mxCell id="TRK05HxOvGJllQYXawu--5" value="" style="ellipse;whiteSpace=wrap;html=1;aspect=fixed;fontSize=22;" parent="1" vertex="1">
                    <mxGeometry x="410" y="80" width="30" height="30" as="geometry"/>
                </mxCell>
                <mxCell id="TRK05HxOvGJllQYXawu--29" value="}{" style="text;html=1;align=center;verticalAlign=middle;resizable=0;points=[];autosize=1;strokeColor=none;fillColor=none;fontSize=26;fontStyle=1" parent="1" vertex="1">
                    <mxGeometry x="267.65999999999997" y="73" width="40" height="40" as="geometry"/>
                </mxCell>
                <mxCell id="2" value="&lt;p style=&quot;line-height: 0.7&quot;&gt;----&lt;br&gt;----&lt;br&gt;----&lt;/p&gt;" style="text;html=1;strokeColor=none;fillColor=none;align=center;verticalAlign=middle;whiteSpace=wrap;rounded=0;" parent="1" vertex="1">
                    <mxGeometry x="130" y="80" width="30" height="30" as="geometry"/>
                </mxCell>
                <mxCell id="7" value="&lt;font style=&quot;font-size: 18px&quot;&gt;[Live Contests]&lt;/font&gt;" style="text;html=1;strokeColor=none;fillColor=none;align=center;verticalAlign=middle;whiteSpace=wrap;rounded=0;" parent="1" vertex="1">
                    <mxGeometry x="119.75" y="310" width="154" height="30" as="geometry"/>
                </mxCell>
                <mxCell id="11" value="" style="rounded=1;whiteSpace=wrap;html=1;fontSize=18;" parent="1" vertex="1">
                    <mxGeometry x="133.5" y="170" width="300" height="122" as="geometry"/>
                </mxCell>
                <mxCell id="12" value="&lt;font style=&quot;font-size: 22px;&quot;&gt;Contest Name&lt;/font&gt;" style="text;html=1;strokeColor=none;fillColor=none;align=left;verticalAlign=middle;whiteSpace=wrap;rounded=0;fontSize=22;" parent="1" vertex="1">
                    <mxGeometry x="146.5" y="175" width="240" height="30" as="geometry"/>
                </mxCell>
                <mxCell id="13" value="&lt;font style=&quot;font-size: 10px;&quot;&gt;MM/DD/YY 12:12 pm - MM/DD/YY 12:12 pm&lt;/font&gt;" style="text;html=1;strokeColor=none;fillColor=none;align=left;verticalAlign=middle;whiteSpace=wrap;rounded=0;fontSize=10;" parent="1" vertex="1">
                    <mxGeometry x="226.5" y="205" width="210" height="20" as="geometry"/>
                </mxCell>
                <mxCell id="14" value="Fuesce tristque nisi en veeatins volutapat. Ut elememtume accumdwamt doneac ad du massa. vetibula atuctor eli id ears facilisisi." style="text;strokeColor=none;fillColor=none;align=left;verticalAlign=middle;whiteSpace=wrap;rounded=0;fontSize=10;" parent="1" vertex="1">
                    <mxGeometry x="226.5" y="235" width="210" height="45" as="geometry"/>
                </mxCell>
                <mxCell id="15" value="Website&lt;br&gt;Logo" style="rounded=0;whiteSpace=wrap;html=1;fontFamily=Helvetica;fontSize=10;verticalAlign=bottom;" parent="1" vertex="1">
                    <mxGeometry x="147.5" y="210" width="69" height="69" as="geometry"/>
                </mxCell>
                <mxCell id="16" value="" style="endArrow=none;html=1;rounded=0;fontFamily=Helvetica;fontSize=10;exitX=0;exitY=1;exitDx=0;exitDy=0;entryX=1;entryY=0;entryDx=0;entryDy=0;" parent="1" source="15" target="15" edge="1">
                    <mxGeometry width="50" height="50" relative="1" as="geometry">
                        <mxPoint x="256.5" y="295" as="sourcePoint"/>
                        <mxPoint x="306.5" y="245" as="targetPoint"/>
                    </mxGeometry>
                </mxCell>
                <mxCell id="17" value="" style="endArrow=none;html=1;rounded=0;fontFamily=Helvetica;fontSize=10;exitX=0;exitY=0;exitDx=0;exitDy=0;entryX=1;entryY=1;entryDx=0;entryDy=0;" parent="1" source="15" target="15" edge="1">
                    <mxGeometry width="50" height="50" relative="1" as="geometry">
                        <mxPoint x="256.5" y="295" as="sourcePoint"/>
                        <mxPoint x="306.5" y="245" as="targetPoint"/>
                    </mxGeometry>
                </mxCell>
                <mxCell id="18" value="&lt;font style=&quot;font-size: 18px&quot;&gt;[Participating Contests]&lt;/font&gt;" style="text;html=1;strokeColor=none;fillColor=none;align=center;verticalAlign=middle;whiteSpace=wrap;rounded=0;" parent="1" vertex="1">
                    <mxGeometry x="116" y="130" width="225.25" height="30" as="geometry"/>
                </mxCell>
                <mxCell id="19" value="" style="rounded=1;whiteSpace=wrap;html=1;fontSize=18;" parent="1" vertex="1">
                    <mxGeometry x="132.25" y="350" width="300" height="122" as="geometry"/>
                </mxCell>
                <mxCell id="20" value="&lt;font style=&quot;font-size: 22px;&quot;&gt;Contest Name&lt;/font&gt;" style="text;html=1;strokeColor=none;fillColor=none;align=left;verticalAlign=middle;whiteSpace=wrap;rounded=0;fontSize=22;" parent="1" vertex="1">
                    <mxGeometry x="145.25" y="355" width="240" height="30" as="geometry"/>
                </mxCell>
                <mxCell id="21" value="&lt;font style=&quot;font-size: 10px;&quot;&gt;MM/DD/YY 12:12 pm - MM/DD/YY 12:12 pm&lt;/font&gt;" style="text;html=1;strokeColor=none;fillColor=none;align=left;verticalAlign=middle;whiteSpace=wrap;rounded=0;fontSize=10;" parent="1" vertex="1">
                    <mxGeometry x="225.25" y="385" width="210" height="20" as="geometry"/>
                </mxCell>
                <mxCell id="22" value="Fuesce tristque nisi en veeatins volutapat. Ut elememtume accumdwamt doneac ad du massa. vetibula atuctor eli id ears facilisisi." style="text;strokeColor=none;fillColor=none;align=left;verticalAlign=middle;whiteSpace=wrap;rounded=0;fontSize=10;" parent="1" vertex="1">
                    <mxGeometry x="225.25" y="415" width="210" height="45" as="geometry"/>
                </mxCell>
                <mxCell id="23" value="Website&lt;br&gt;Logo" style="rounded=0;whiteSpace=wrap;html=1;fontFamily=Helvetica;fontSize=10;verticalAlign=bottom;" parent="1" vertex="1">
                    <mxGeometry x="146.25" y="390" width="69" height="69" as="geometry"/>
                </mxCell>
                <mxCell id="24" value="" style="endArrow=none;html=1;rounded=0;fontFamily=Helvetica;fontSize=10;exitX=0;exitY=1;exitDx=0;exitDy=0;entryX=1;entryY=0;entryDx=0;entryDy=0;" parent="1" source="23" target="23" edge="1">
                    <mxGeometry width="50" height="50" relative="1" as="geometry">
                        <mxPoint x="255.25" y="475" as="sourcePoint"/>
                        <mxPoint x="305.25" y="425" as="targetPoint"/>
                    </mxGeometry>
                </mxCell>
                <mxCell id="25" value="" style="endArrow=none;html=1;rounded=0;fontFamily=Helvetica;fontSize=10;exitX=0;exitY=0;exitDx=0;exitDy=0;entryX=1;entryY=1;entryDx=0;entryDy=0;" parent="1" source="23" target="23" edge="1">
                    <mxGeometry width="50" height="50" relative="1" as="geometry">
                        <mxPoint x="255.25" y="475" as="sourcePoint"/>
                        <mxPoint x="305.25" y="425" as="targetPoint"/>
                    </mxGeometry>
                </mxCell>
                <mxCell id="26" value="&lt;font style=&quot;font-size: 18px&quot;&gt;[Upcoming Contests]&lt;/font&gt;" style="text;html=1;strokeColor=none;fillColor=none;align=center;verticalAlign=middle;whiteSpace=wrap;rounded=0;" parent="1" vertex="1">
                    <mxGeometry x="116" y="490" width="204" height="30" as="geometry"/>
                </mxCell>
                <mxCell id="27" value="" style="rounded=1;whiteSpace=wrap;html=1;fontSize=18;" parent="1" vertex="1">
                    <mxGeometry x="133.5" y="530" width="300" height="122" as="geometry"/>
                </mxCell>
                <mxCell id="28" value="&lt;font style=&quot;font-size: 22px;&quot;&gt;Contest Name&lt;/font&gt;" style="text;html=1;strokeColor=none;fillColor=none;align=left;verticalAlign=middle;whiteSpace=wrap;rounded=0;fontSize=22;" parent="1" vertex="1">
                    <mxGeometry x="146.5" y="535" width="240" height="30" as="geometry"/>
                </mxCell>
                <mxCell id="29" value="&lt;font style=&quot;font-size: 10px;&quot;&gt;MM/DD/YY 12:12 pm - MM/DD/YY 12:12 pm&lt;/font&gt;" style="text;html=1;strokeColor=none;fillColor=none;align=left;verticalAlign=middle;whiteSpace=wrap;rounded=0;fontSize=10;" parent="1" vertex="1">
                    <mxGeometry x="226.5" y="565" width="210" height="20" as="geometry"/>
                </mxCell>
                <mxCell id="30" value="Fuesce tristque nisi en veeatins volutapat. Ut elememtume accumdwamt doneac ad du massa. vetibula atuctor eli id ears facilisisi." style="text;strokeColor=none;fillColor=none;align=left;verticalAlign=middle;whiteSpace=wrap;rounded=0;fontSize=10;" parent="1" vertex="1">
                    <mxGeometry x="226.5" y="595" width="210" height="45" as="geometry"/>
                </mxCell>
                <mxCell id="31" value="Website&lt;br&gt;Logo" style="rounded=0;whiteSpace=wrap;html=1;fontFamily=Helvetica;fontSize=10;verticalAlign=bottom;" parent="1" vertex="1">
                    <mxGeometry x="147.5" y="570" width="69" height="69" as="geometry"/>
                </mxCell>
                <mxCell id="32" value="" style="endArrow=none;html=1;rounded=0;fontFamily=Helvetica;fontSize=10;exitX=0;exitY=1;exitDx=0;exitDy=0;entryX=1;entryY=0;entryDx=0;entryDy=0;" parent="1" source="31" target="31" edge="1">
                    <mxGeometry width="50" height="50" relative="1" as="geometry">
                        <mxPoint x="256.5" y="655" as="sourcePoint"/>
                        <mxPoint x="306.5" y="605" as="targetPoint"/>
                    </mxGeometry>
                </mxCell>
                <mxCell id="33" value="" style="endArrow=none;html=1;rounded=0;fontFamily=Helvetica;fontSize=10;exitX=0;exitY=0;exitDx=0;exitDy=0;entryX=1;entryY=1;entryDx=0;entryDy=0;" parent="1" source="31" target="31" edge="1">
                    <mxGeometry width="50" height="50" relative="1" as="geometry">
                        <mxPoint x="256.5" y="655" as="sourcePoint"/>
                        <mxPoint x="306.5" y="605" as="targetPoint"/>
                    </mxGeometry>
                </mxCell>
            </root>
        </mxGraphModel>
    </diagram>
</mxfile>